<?xml version="1.0" standalone="no"?>
<!DOCTYPE svg PUBLIC "-//W3C//DTD SVG 20010904//EN"
 "http://www.w3.org/TR/2001/REC-SVG-20010904/DTD/svg10.dtd">
<svg version="1.0" xmlns="http://www.w3.org/2000/svg"
 width="225.000000pt" height="225.000000pt" viewBox="0 0 225.000000 225.000000"
 preserveAspectRatio="xMidYMid meet">

<g transform="translate(0.000000,225.000000) scale(0.100000,-0.100000)"
fill="#000000" stroke="none">
<path d="M1835 1990 c-76 -76 -115 -108 -125 -104 -49 21 -59 17 -134 -56 -43
-42 -77 -67 -81 -61 -3 6 -21 11 -39 11 -36 0 -66 -25 -69 -58 -1 -15 -10 -22
-38 -26 -21 -3 -45 -3 -54 0 -12 5 -111 -87 -386 -362 l-369 -368 -38 37 c-29
29 -46 37 -74 37 -67 0 -115 -68 -87 -122 6 -13 27 -40 46 -60 l36 -37 -22
-27 c-28 -35 -27 -55 4 -84 l26 -24 -68 -68 -67 -67 -47 44 c-54 51 -85 56
-117 22 -42 -45 -33 -61 131 -225 132 -132 156 -152 184 -152 22 0 37 7 47 22
26 36 19 65 -26 114 l-42 45 67 67 66 66 24 -22 c29 -28 54 -28 84 0 l22 21
45 -41 c53 -49 85 -59 127 -41 36 14 64 68 53 102 -3 12 -22 39 -42 60 l-36
37 367 368 367 367 0 53 c0 43 3 52 18 52 10 0 28 7 41 16 19 14 22 23 19 64
-3 47 -1 50 60 113 62 65 72 90 53 126 -8 14 10 37 100 127 100 99 130 144 96
144 -7 0 -62 -50 -122 -110z m-130 -160 l29 -31 -67 -67 -67 -67 -32 33 -33
32 65 65 c35 36 67 65 70 65 4 0 19 -14 35 -30z m-168 -162 c72 -71 91 -108
55 -108 -26 0 -166 145 -159 164 11 28 30 18 104 -56z m-70 -70 c50 -49 63
-69 63 -92 0 -30 -3 -28 -84 53 -47 47 -83 88 -80 93 12 20 43 4 101 -54z
m-64 -71 l106 -113 -152 -152 -152 -151 -115 109 -115 109 155 155 c85 86 158
156 161 156 4 0 54 -51 112 -113z m-346 -339 c98 -97 117 -128 92 -144 -15 -9
-239 215 -232 232 11 29 41 10 140 -88z m-153 16 l19 -26 -147 -146 -146 -147
-27 28 -28 27 145 145 c80 80 149 145 155 145 5 0 18 -12 29 -26z m-31 -266
l-147 -148 -33 32 -33 32 147 148 147 148 33 -32 33 -32 -147 -148z m89 -80
c-81 -82 -149 -148 -152 -148 -3 0 -16 9 -30 20 l-25 19 149 150 149 150 28
-22 27 -22 -146 -147z m-305 -70 c149 -148 213 -220 213 -235 0 -26 -36 -54
-57 -46 -9 4 -109 100 -224 215 -210 210 -229 234 -197 266 29 29 55 9 265
-200z m-94 -106 c93 -94 97 -99 79 -115 -17 -16 -23 -11 -117 83 -85 85 -97
101 -85 114 7 9 15 16 19 16 3 0 50 -44 104 -98z m-68 -62 l29 -31 -67 -67
-67 -67 -32 33 -33 32 65 65 c35 36 67 65 70 65 4 0 19 -14 35 -30z m-155
-174 c128 -129 134 -137 117 -153 -16 -17 -25 -10 -164 129 -126 126 -145 149
-134 162 19 22 29 15 181 -138z"/>
<path d="M1990 1897 c-19 -10 -30 -37 -67 -177 -28 -106 -41 -174 -37 -192 9
-42 51 -86 93 -99 74 -22 161 43 161 121 0 22 -64 273 -81 317 -12 32 -40 44
-69 30z m96 -373 c-8 -30 -58 -55 -99 -47 -32 6 -57 37 -57 70 0 20 62 264 77
303 9 24 86 -296 79 -326z"/>
</g>
</svg>
