<?xml version="1.0" standalone="no"?>
<!DOCTYPE svg PUBLIC "-//W3C//DTD SVG 20010904//EN"
 "http://www.w3.org/TR/2001/REC-SVG-20010904/DTD/svg10.dtd">
<svg version="1.0" xmlns="http://www.w3.org/2000/svg"
 width="200.000000pt" height="200.000000pt" viewBox="0 0 200.000000 200.000000"
 preserveAspectRatio="xMidYMid meet">

<g transform="translate(0.000000,200.000000) scale(0.100000,-0.100000)"
fill="#000000" stroke="none">
<path d="M1504 1869 c-3 -6 12 -30 35 -52 l41 -42 -112 -112 -113 -113 -77 77
c-61 61 -80 75 -90 65 -9 -9 -4 -20 25 -50 l37 -37 -355 -355 -355 -355 0
-114 0 -115 -32 -33 -32 -33 -23 22 c-30 28 -43 15 -14 -16 19 -20 20 -25 7
-35 -8 -7 -36 -46 -61 -87 -39 -62 -45 -77 -34 -90 11 -13 -6 -34 -111 -139
-68 -68 -121 -128 -117 -132 4 -4 64 49 132 117 105 105 126 122 139 111 13
-11 28 -5 90 34 41 25 80 53 87 61 10 13 15 12 35 -7 31 -29 44 -16 16 14
l-22 23 33 32 33 32 115 0 114 0 355 355 355 355 37 -37 c30 -29 41 -34 50
-25 10 10 -4 29 -65 90 l-77 77 113 113 112 112 42 -42 c34 -34 45 -40 55 -30
10 10 -24 49 -167 192 -99 99 -183 180 -187 180 -4 0 -10 -5 -14 -11z m54
-296 l-112 -113 -38 37 -38 37 112 113 112 113 38 -37 38 -37 -112 -113z m90
-90 l-112 -113 -38 37 -38 37 112 113 112 113 38 -37 38 -37 -112 -113z m-221
-55 c79 -79 143 -147 143 -153 0 -6 -20 -31 -45 -55 l-45 -44 -45 44 c-58 57
-72 43 -15 -15 l44 -45 -52 -52 -52 -53 -65 65 c-35 35 -68 61 -72 57 -4 -4
22 -37 57 -72 l65 -65 -53 -52 -52 -52 -45 44 c-58 57 -72 43 -15 -15 l44 -45
-52 -52 -52 -53 -65 65 c-35 35 -68 61 -72 57 -4 -4 22 -37 57 -72 l64 -65
-44 -45 -44 -45 -153 152 -153 153 277 277 c153 153 282 278 288 278 5 0 74
-64 152 -142z m-908 -912 c24 -24 40 -49 37 -55 -4 -6 -39 -29 -77 -52 l-70
-42 -21 20 c-17 18 -18 24 -8 44 27 51 80 129 88 129 4 0 27 -20 51 -44z"/>
</g>
</svg>
